# xmcd CD database file
#
# Track frame offsets:
#	150
#	24512
#	44077
#
# Disc length: 833 seconds
#
# Revision: 0
# Processed by: cddbd v1.5PL3 Copyright (c) Steve Scherf et al.
# Submitted via: CDex 1.51
#
DISCID=21033f03
DTITLE=アンコニュ - 運命
DYEAR=2001
DGENRE=JPop
TTITLE0=運命
TTITLE1=そら
TTITLE2=新しい朝
EXTD=YEAR: 2001
EXTT0=
EXTT1=
EXTT2=
PLAYORDER=
